<svg width="160" height="64" viewBox="0 0 160 64" fill="none" xmlns="http://www.w3.org/2000/svg">
<path d="M93.4629 32.7483L106.474 12.8892L119.485 32.7483L118.8 30.6939L134.14 7M134.14 7L134.962 12.8892M134.14 7L128.387 9.46526" stroke="url(#paint0_linear_9_2)" stroke-width="1.91743"/>
<path d="M55.5551 38.6284C59.6882 38.6284 62.8227 36.3027 62.8227 32.6879C62.8227 29.4775 60.3201 27.9229 57.0971 26.5073C54.6198 25.4456 52.7365 24.8768 52.7365 23.2843C52.7365 21.8434 54.228 20.6806 56.0986 20.6806C57.5774 20.6806 58.9804 21.4516 59.6123 22.8293L61.9885 21.1861C61.1543 18.949 58.9804 17.546 56.0733 17.546C52.4079 17.546 49.5135 19.8717 49.5135 23.2084C49.5135 26.4062 52.1678 27.6448 54.5566 28.7065C56.9328 29.7303 59.6123 30.8678 59.6123 32.7511C59.6123 34.3057 57.8807 35.4054 55.593 35.4054C53.6339 35.4054 51.9403 34.4953 51.0302 32.9028L48.5024 34.7102C49.6652 37.0611 52.2057 38.6284 55.5551 38.6284ZM73.0858 38.6663C77.4211 38.6663 80.7958 35.241 80.7958 30.5645V17.9126H77.5728V30.5519C77.5728 33.3704 75.5631 35.4306 73.0732 35.4306C70.5832 35.4306 68.5989 33.3704 68.5989 30.5519V17.9126H65.3885V30.5645C65.3885 35.241 68.7505 38.6663 73.0858 38.6663ZM104.229 17.4702L94.4968 32.2834L84.7519 17.4702H84.5117V38.2871H87.7095V26.9749L94.4841 37.9458H94.5094L101.271 26.9876V38.2871H104.469V17.4702H104.229ZM128.117 17.4702L118.385 32.2834L108.64 17.4702H108.4V38.2871H111.598V26.9749L118.372 37.9458H118.398L125.16 26.9876V38.2871H128.357V17.4702H128.117ZM132.288 38.2871H135.486V17.9126H132.288V38.2871ZM152.183 17.9126H138.052V21.085H143.512V38.2871H146.722V21.085H152.183V17.9126Z" fill="white"/>
<path d="M54.6341 53.9149C56.2208 53.9149 57.4275 53.2216 58.3208 52.3349L57.6208 51.3615C56.8475 52.1215 55.8141 52.6949 54.6007 52.6949C52.4007 52.6949 50.3339 50.8348 50.3339 48.4081C50.3339 45.9747 52.4207 44.1079 54.5807 44.1079C55.7608 44.1079 56.8408 44.6613 57.6142 45.4546L58.3208 44.5013C57.3475 43.5212 56.0074 42.8879 54.6274 42.8746C51.614 42.8746 49.1072 45.388 49.1072 48.4081C49.1072 51.4548 51.6473 53.9149 54.6341 53.9149ZM64.2744 53.9149C67.3211 53.9149 69.8079 51.4348 69.8079 48.4081C69.8079 45.3613 67.3211 42.8746 64.281 42.8746C61.2476 42.8746 58.7609 45.3613 58.7609 48.4081C58.7609 51.4348 61.2476 53.9149 64.2744 53.9149ZM64.2744 52.6882C61.9143 52.6882 59.9876 50.7615 59.9876 48.4014C59.9876 46.0347 61.9143 44.0946 64.2744 44.0946C66.6478 44.0946 68.5812 46.0347 68.5812 48.4014C68.5812 50.7615 66.6478 52.6882 64.2744 52.6882ZM78.9415 43.0012V51.0348L71.5813 42.8612H71.5146V53.7882H72.728V45.7613L80.0949 53.9416H80.1549V43.0012H78.9415ZM89.8485 43.0012V51.0348L82.4883 42.8612H82.4216V53.7882H83.635V45.7613L91.0019 53.9416H91.0619V43.0012H89.8485ZM99.6422 44.2213V43.0279H93.3286V53.7749H99.6422V52.5682H94.542V48.8347H98.9621V47.6214H94.542V44.2213H99.6422ZM106.529 53.9149C108.116 53.9149 109.322 53.2216 110.216 52.3349L109.516 51.3615C108.742 52.1215 107.709 52.6949 106.496 52.6949C104.296 52.6949 102.229 50.8348 102.229 48.4081C102.229 45.9747 104.316 44.1079 106.476 44.1079C107.656 44.1079 108.736 44.6613 109.509 45.4546L110.216 44.5013C109.242 43.5212 107.902 42.8879 106.522 42.8746C103.509 42.8746 101.002 45.388 101.002 48.4081C101.002 51.4548 103.542 53.9149 106.529 53.9149ZM118.349 43.0279H110.896V44.2279H114.023V53.7749H115.236V44.2279H118.349V43.0279ZM119.823 53.7749H121.036V43.0279H119.823V53.7749ZM128.25 53.9149C131.297 53.9149 133.783 51.4348 133.783 48.4081C133.783 45.3613 131.297 42.8746 128.256 42.8746C125.223 42.8746 122.736 45.3613 122.736 48.4081C122.736 51.4348 125.223 53.9149 128.25 53.9149ZM128.25 52.6882C125.89 52.6882 123.963 50.7615 123.963 48.4014C123.963 46.0347 125.89 44.0946 128.25 44.0946C130.623 44.0946 132.557 46.0347 132.557 48.4014C132.557 50.7615 130.623 52.6882 128.25 52.6882ZM142.917 43.0012V51.0348L135.557 42.8612H135.49V53.7882H136.703V45.7613L144.07 53.9416H144.13V43.0012H142.917ZM149.37 53.9216C151.437 53.9216 153.151 52.7149 153.151 50.8615C153.151 49.1348 151.624 48.3881 150.01 47.7347C148.624 47.2014 147.444 46.8213 147.444 45.7813C147.444 44.8213 148.43 44.0613 149.584 44.0613C150.55 44.0613 151.417 44.6079 151.764 45.4146L152.677 44.8013C152.277 43.7412 151.19 42.8679 149.597 42.8679C147.71 42.8679 146.224 44.1013 146.224 45.7546C146.224 47.4147 147.697 48.0614 149.017 48.5747C150.39 49.0948 151.931 49.6748 151.931 50.8815C151.931 51.9415 150.784 52.7015 149.377 52.7015C148.237 52.7015 147.137 52.0882 146.65 51.1682L145.717 51.8548C146.23 53.0015 147.604 53.9216 149.37 53.9216Z" fill="white"/>
<mask id="mask0_9_2" style="mask-type:alpha" maskUnits="userSpaceOnUse" x="8" y="15" width="34" height="41">
<rect x="8" y="15.2183" width="33.684" height="40.266" fill="#D9D9D9"/>
</mask>
<g mask="url(#mask0_9_2)">
<rect x="6.45166" y="15.2183" width="35.2327" height="41.4275" fill="black"/>
<path d="M6.45166 47.7404L24.8424 19.6704L43.2331 47.7404L42.2652 44.8366L63.9468 11.3462M63.9468 11.3462L65.1084 19.6704M63.9468 11.3462L55.8162 14.8307" stroke="url(#paint1_linear_9_2)" stroke-width="2.71021"/>
<path d="M-47.1299 56.7412C-41.288 56.7412 -36.8574 53.454 -36.8574 48.3446C-36.8574 43.8069 -40.3947 41.6094 -44.9503 39.6085C-48.4519 38.1079 -51.1138 37.3039 -51.1138 35.0529C-51.1138 33.0163 -49.0057 31.3727 -46.3617 31.3727C-44.2715 31.3727 -42.2884 32.4625 -41.3952 34.4098L-38.0365 32.0873C-39.2156 28.9252 -42.2884 26.9422 -46.3974 26.9422C-51.5783 26.9422 -55.6694 30.2293 -55.6694 34.9457C-55.6694 39.4656 -51.9177 41.2164 -48.5412 42.7171C-45.1826 44.1642 -41.3952 45.772 -41.3952 48.4339C-41.3952 50.6313 -43.8427 52.1856 -47.0763 52.1856C-49.8454 52.1856 -52.2393 50.8993 -53.5256 48.6483L-57.0986 51.203C-55.455 54.5259 -51.8641 56.7412 -47.1299 56.7412Z" fill="white"/>
<path d="M-22.3509 56.7948C-16.2232 56.7948 -11.4532 51.9534 -11.4532 45.3433V27.4602H-16.0088V45.3254C-16.0088 49.3093 -18.8493 52.2213 -22.3688 52.2213C-25.8882 52.2213 -28.693 49.3093 -28.693 45.3254V27.4602H-33.2308V45.3433C-33.2308 51.9534 -28.4787 56.7948 -22.3509 56.7948Z" fill="white"/>
<path d="M21.6688 26.835L7.91265 47.7729L-5.86138 26.835H-6.20082V56.2589H-1.68094V40.2696L7.89479 55.7765H7.93052L17.4884 40.2874V56.2589H22.0083V26.835H21.6688Z" fill="white"/>
<path d="M55.434 26.835L41.6778 47.7729L27.9038 26.835H27.5643V56.2589H32.0842V40.2696L41.6599 55.7765H41.6957L51.2535 40.2874V56.2589H55.7734V26.835H55.434Z" fill="white"/>
<path d="M61.3295 56.2589H65.8493V27.4602H61.3295V56.2589Z" fill="white"/>
<path d="M89.4492 27.4602H69.476V31.9444H77.1937V56.2589H81.7315V31.9444H89.4492V27.4602Z" fill="white"/>
</g>
<defs>
<linearGradient id="paint0_linear_9_2" x1="114.281" y1="18.0937" x2="114.212" y2="32.7483" gradientUnits="userSpaceOnUse">
<stop stop-color="#E18700"/>
<stop offset="1" stop-color="#E10000"/>
</linearGradient>
<linearGradient id="paint1_linear_9_2" x1="35.8768" y1="27.0267" x2="35.78" y2="47.7404" gradientUnits="userSpaceOnUse">
<stop stop-color="#E18700"/>
<stop offset="1" stop-color="#E10000"/>
</linearGradient>
</defs>
</svg>
